<?xml version="1.0" standalone="no"?>
<!DOCTYPE svg PUBLIC "-//W3C//DTD SVG 20010904//EN"
 "http://www.w3.org/TR/2001/REC-SVG-20010904/DTD/svg10.dtd">
<svg version="1.0" xmlns="http://www.w3.org/2000/svg"
 width="500.000000pt" height="500.000000pt" viewBox="0 0 500.000000 500.000000"
 preserveAspectRatio="xMidYMid meet">

<g transform="translate(0.000000,500.000000) scale(0.100000,-0.100000)"
fill="#000000" stroke="none">
<path d="M0 2500 l0 -2500 2500 0 2500 0 0 2500 0 2500 -2500 0 -2500 0 0
-2500z m655 606 c13 2 27 0 30 -6 10 -16 28 -12 21 6 -3 9 -2 12 5 9 5 -4 8
-12 6 -18 -2 -6 4 -18 14 -27 12 -11 15 -21 9 -35 -9 -20 -9 -20 -9 1 -1 21
-19 44 -34 44 -5 0 -4 -7 3 -15 10 -12 10 -15 -4 -15 -9 0 -16 -4 -16 -10 0
-5 6 -10 14 -10 7 0 20 -8 27 -17 11 -15 11 -16 -1 -5 -21 18 -32 15 -21 -7 6
-10 7 -21 4 -25 -3 -3 -2 -6 3 -6 6 0 15 5 21 11 8 8 13 5 18 -10 8 -26 21
-27 30 -3 6 15 8 15 25 -6 11 -13 24 -21 29 -18 5 4 13 1 16 -5 4 -5 13 -8 20
-5 8 3 15 0 17 -6 3 -8 10 -8 23 -1 15 9 22 6 36 -11 10 -11 18 -15 19 -8 0
29 27 8 47 -38 19 -42 22 -64 19 -140 -3 -94 -8 -108 -44 -115 -16 -3 -19 0
-15 12 5 14 3 13 -19 -1 -23 -15 -26 -15 -38 -1 -10 12 -16 13 -27 4 -11 -9
-12 -9 -8 3 5 12 -1 15 -27 14 -18 -1 -36 3 -40 8 -5 7 -11 6 -18 -4 -6 -10
-10 -11 -10 -2 0 6 -9 12 -19 12 -11 0 -22 -6 -24 -12 -3 -8 -6 -6 -6 5 -1 10
-9 17 -21 17 -12 0 -20 -7 -20 -17 0 -13 -5 -11 -18 10 -9 15 -20 27 -24 27
-12 0 -10 -14 4 -28 9 -9 9 -12 0 -12 -7 0 -12 -4 -12 -10 0 -5 9 -10 19 -10
21 0 36 -26 21 -35 -6 -4 -10 1 -10 9 0 9 -9 16 -20 16 -13 0 -20 -7 -20 -20
0 -12 7 -20 16 -20 13 0 14 -3 4 -15 -12 -15 -6 -35 12 -35 5 0 8 6 5 14 -8
19 25 47 42 37 9 -6 7 -10 -8 -14 -21 -5 -24 -28 -8 -54 4 -6 0 -18 -9 -27
-17 -18 -15 -57 4 -64 8 -2 10 3 6 15 -5 14 -4 15 4 3 8 -10 7 -18 -1 -28 -7
-9 -13 -10 -15 -3 -2 6 -10 11 -18 11 -8 0 -11 6 -8 15 4 9 0 15 -10 15 -9 0
-16 5 -16 10 0 6 -8 10 -17 11 -14 0 -15 2 -3 6 17 7 30 23 30 38 0 6 -3 6 -8
-1 -12 -18 -52 -24 -52 -8 0 8 -4 14 -10 14 -5 0 -10 7 -10 15 0 8 -6 15 -13
15 -8 0 -19 11 -25 25 -6 14 -16 25 -22 25 -6 0 -8 5 -5 10 3 6 -1 10 -10 10
-9 0 -13 5 -10 10 3 6 1 10 -4 10 -6 0 -11 5 -11 10 0 6 -11 22 -25 36 -14 14
-23 29 -20 35 4 5 -2 6 -12 2 -10 -3 -15 -3 -11 2 4 4 2 13 -5 20 -34 36 -47
57 -41 67 4 7 3 8 -4 4 -7 -4 -12 -1 -12 7 0 8 -10 22 -21 33 -12 10 -25 29
-30 42 -5 12 -15 22 -23 22 -10 0 -13 6 -9 18 3 9 3 14 -2 10 -4 -4 -25 16
-46 45 -43 57 -41 64 27 71 22 2 46 6 54 9 8 3 42 8 75 11 33 3 76 8 95 11 19
4 63 7 97 9 34 1 66 5 70 10 4 4 9 3 11 -3 2 -5 14 -8 27 -5z m99 6 c2 -4 0
-14 -6 -22 -8 -12 -9 -12 -5 2 3 9 1 19 -6 22 -9 3 -9 5 0 5 6 1 14 -3 17 -7z
m36 -2 c0 -5 -2 -10 -4 -10 -3 0 -8 5 -11 10 -3 6 -1 10 4 10 6 0 11 -4 11
-10z m-10 -41 c0 -11 -4 -18 -10 -14 -5 3 -7 12 -3 20 7 21 13 19 13 -6z m53
-4 c-3 -9 -8 -14 -10 -11 -3 3 -2 9 2 15 9 16 15 13 8 -4z m-46 -47 c-3 -8 -6
-5 -6 6 -1 11 2 17 5 13 3 -3 4 -12 1 -19z m440 -197 c36 6 52 -3 58 -33 4
-18 12 -39 17 -45 7 -9 7 -13 -2 -13 -7 0 -2 -8 11 -19 20 -16 21 -21 10 -35
-7 -9 -20 -16 -28 -16 -8 0 -11 -4 -8 -10 13 -20 -14 -49 -42 -45 -16 2 -30 5
-33 6 -3 1 -11 3 -19 3 -8 1 -16 12 -17 26 -7 56 -7 117 0 157 7 38 10 42 26
33 11 -6 23 -10 27 -9z m1425 -29 c14 -14 22 -36 24 -64 1 -24 0 -37 -3 -30
-7 17 -23 15 -23 -3 0 -8 -6 -16 -12 -16 -7 -1 -23 -3 -36 -4 -56 -6 -93 77
-53 119 27 28 74 27 103 -2z m-1913 -185 c0 -9 -2 -9 -5 0 -3 7 -13 9 -22 6
-14 -4 -14 -3 -2 5 16 12 30 7 29 -11z m-9 -83 c0 -14 -4 -23 -9 -20 -7 5 -8
23 -2 44 4 12 11 -3 11 -24z m53 -9 c-3 -9 -8 -14 -10 -11 -3 3 -2 9 2 15 9
16 15 13 8 -4z m-73 -40 c-7 -8 -17 -15 -23 -15 -6 0 -2 7 9 15 25 19 30 19
14 0z m21 -16 c-5 -13 -10 -19 -10 -12 -1 15 10 45 15 40 3 -2 0 -15 -5 -28z
m3525 -7 c-9 -9 -37 8 -31 18 5 8 11 7 21 -1 8 -6 12 -14 10 -17z m57 4 c25
-15 34 -26 25 -29 -7 -3 1 -5 18 -4 17 0 48 -10 70 -23 21 -14 41 -25 44 -25
3 -1 30 -17 60 -36 30 -20 62 -39 70 -42 25 -11 54 -31 75 -52 12 -11 27 -21
34 -23 7 -1 19 -8 25 -15 7 -7 33 -25 59 -41 25 -16 44 -33 41 -38 -3 -4 1 -8
8 -9 9 0 9 -2 -2 -6 -8 -4 -21 -12 -28 -20 -8 -7 -18 -10 -23 -7 -6 3 -18 -1
-27 -9 -9 -9 -29 -19 -45 -22 -15 -4 -30 -11 -33 -17 -3 -5 -12 -4 -20 3 -12
10 -13 9 -7 -6 5 -15 3 -17 -11 -12 -9 4 -15 3 -11 -2 7 -12 -31 -24 -46 -15
-8 4 -9 3 -5 -4 4 -7 1 -12 -9 -12 -9 0 -13 -5 -9 -11 4 -8 -1 -9 -16 -4 -17
5 -21 4 -15 -6 6 -9 3 -11 -9 -6 -9 4 -15 3 -12 -1 3 -4 -4 -13 -15 -20 -15
-9 -19 -9 -19 0 0 6 -7 3 -16 -8 -8 -10 -13 -12 -9 -4 4 10 2 9 -8 -2 -8 -10
-19 -18 -26 -18 -12 0 -52 -21 -61 -31 -11 -13 -38 -5 -32 9 4 11 1 13 -8 7
-10 -6 -12 -3 -7 14 3 13 3 20 0 17 -8 -8 -33 42 -35 71 -1 12 -5 23 -8 23 -3
0 -6 15 -7 32 -2 18 -7 34 -13 36 -7 3 -6 9 2 20 11 13 10 15 -4 9 -10 -3 -18
-2 -18 3 0 6 5 10 10 10 14 0 12 16 -4 32 -10 11 -11 19 -4 32 7 13 7 21 -2
26 -7 4 -9 16 -5 29 4 12 2 21 -4 21 -6 0 -11 5 -11 11 0 5 5 7 10 4 10 -6 7
20 -5 62 -2 6 1 13 7 15 6 2 4 11 -6 21 -10 9 -14 17 -9 17 5 0 14 -5 21 -12
7 -7 12 -8 12 -2 0 6 -3 14 -7 18 -18 17 -10 33 15 28 22 -4 24 -2 20 22 -6
32 -3 32 45 2z m-3574 -48 c0 -7 -4 -22 -9 -33 -7 -16 -8 -14 -7 12 1 18 5 33
10 33 4 0 7 -6 6 -12z m-39 -28 c0 -5 -5 -10 -11 -10 -5 0 -7 5 -4 10 3 6 8
10 11 10 2 0 4 -4 4 -10z m87 -82 c-3 -7 -5 -2 -5 12 0 14 2 19 5 13 2 -7 2
-19 0 -25z m3290 -340 c-3 -8 -6 -5 -6 6 -1 11 2 17 5 13 3 -3 4 -12 1 -19z
m-44 -52 c-5 -32 -4 -34 21 -33 14 1 24 7 22 13 -2 6 2 11 10 11 8 0 13 -6 10
-14 -3 -8 2 -13 15 -13 11 0 18 -4 14 -10 -3 -5 -12 -7 -20 -3 -10 3 -15 -2
-15 -16 0 -23 16 -29 22 -9 6 16 38 -14 38 -34 0 -10 -3 -9 -10 2 -7 12 -12
12 -28 -4 -19 -17 -21 -17 -31 1 -9 15 -10 13 -5 -12 4 -21 3 -26 -4 -16 -6 8
-15 10 -23 5 -8 -4 -22 -9 -31 -9 -13 -1 -15 2 -7 11 6 7 7 19 3 25 -4 8 -3 9
4 5 7 -4 12 -2 12 3 0 6 -4 11 -10 11 -5 0 -10 5 -10 11 0 8 5 7 15 -1 9 -7
13 -21 10 -31 -5 -14 -2 -17 9 -13 18 7 21 30 5 39 -6 4 -8 13 -5 20 2 7 -2
16 -10 19 -15 6 -18 33 -8 60 10 26 13 18 7 -18z m67 5 c3 -2 -3 -1 -14 3 -10
3 -25 1 -34 -6 -13 -12 -14 -11 -2 9 14 21 20 21 50 -6z m-110 9 c0 -5 -2 -10
-4 -10 -3 0 -8 5 -11 10 -3 6 -1 10 4 10 6 0 11 -4 11 -10z m-3 -112 c-3 -7
-5 -2 -5 12 0 14 2 19 5 13 2 -7 2 -19 0 -25z m-1 -43 c1 -8 -2 -13 -7 -9 -5
3 -9 12 -9 21 0 19 13 9 16 -12z m-6 -36 c0 -6 -4 -7 -10 -4 -5 3 -10 11 -10
16 0 6 5 7 10 4 6 -3 10 -11 10 -16z"/>
<path d="M665 3090 c3 -5 8 -10 11 -10 2 0 4 5 4 10 0 6 -5 10 -11 10 -5 0 -7
-4 -4 -10z"/>
<path d="M650 3050 c0 -5 5 -10 10 -10 6 0 10 5 10 10 0 6 -4 10 -10 10 -5 0
-10 -4 -10 -10z"/>
<path d="M640 3009 c0 -6 7 -9 15 -5 8 3 19 -3 25 -12 11 -16 11 -15 6 1 -3
10 -6 21 -6 23 0 2 -9 4 -20 4 -11 0 -20 -5 -20 -11z"/>
<path d="M650 2980 c0 -5 5 -10 10 -10 6 0 10 5 10 10 0 6 -4 10 -10 10 -5 0
-10 -4 -10 -10z"/>
<path d="M780 2950 c0 -5 5 -10 10 -10 6 0 10 5 10 10 0 6 -4 10 -10 10 -5 0
-10 -4 -10 -10z"/>
<path d="M600 2640 c0 -5 5 -10 10 -10 6 0 10 5 10 10 0 6 -4 10 -10 10 -5 0
-10 -4 -10 -10z"/>
<path d="M590 2590 c0 -5 5 -10 10 -10 6 0 10 5 10 10 0 6 -4 10 -10 10 -5 0
-10 -4 -10 -10z"/>
<path d="M590 2530 c0 -5 5 -10 11 -10 5 0 7 5 4 10 -3 6 -8 10 -11 10 -2 0
-4 -4 -4 -10z"/>
<path d="M653 2514 c3 -4 2 -15 -4 -25 -12 -23 3 -25 21 -4 13 15 6 35 -12 35
-6 0 -8 -3 -5 -6z"/>
<path d="M4280 2453 c0 -17 19 -37 27 -29 4 5 2 11 -5 13 -6 3 -10 9 -6 14 3
5 0 9 -5 9 -6 0 -11 -3 -11 -7z"/>
<path d="M4254 2413 c15 -4 16 -7 5 -13 -7 -5 -10 -12 -6 -17 5 -4 12 -1 17 7
15 23 12 30 -12 29 -20 -1 -20 -2 -4 -6z"/>
<path d="M4290 2390 c0 -5 5 -10 10 -10 6 0 10 5 10 10 0 6 -4 10 -10 10 -5 0
-10 -4 -10 -10z"/>
<path d="M4244 2354 c3 -8 2 -12 -4 -9 -6 3 -10 1 -10 -4 0 -6 9 -11 20 -11
11 0 20 2 20 4 0 14 -14 36 -22 36 -6 0 -7 -7 -4 -16z"/>
<path d="M4290 2340 c0 -5 5 -10 10 -10 6 0 10 5 10 10 0 6 -4 10 -10 10 -5 0
-10 -4 -10 -10z"/>
<path d="M4234 2304 c3 -9 6 -18 6 -20 0 -2 9 -4 20 -4 13 0 20 7 20 20 0 11
-5 20 -11 20 -5 0 -7 -4 -4 -10 3 -5 -1 -10 -10 -10 -9 0 -13 5 -10 10 3 6 1
10 -5 10 -7 0 -9 -7 -6 -16z"/>
<path d="M4236 2254 c-9 -24 -7 -29 5 -17 6 6 18 9 25 6 8 -3 14 0 14 7 0 6
-4 8 -10 5 -5 -3 -10 -1 -10 4 0 17 -17 13 -24 -5z"/>
<path d="M4265 2210 c3 -5 8 -10 11 -10 2 0 4 5 4 10 0 6 -5 10 -11 10 -5 0
-7 -4 -4 -10z"/>
<path d="M4240 2190 c0 -5 5 -10 10 -10 6 0 10 5 10 10 0 6 -4 10 -10 10 -5 0
-10 -4 -10 -10z"/>
<path d="M4054 1849 c0 -12 6 -24 12 -26 6 -2 11 6 10 18 0 12 -6 24 -12 26
-6 2 -11 -6 -10 -18z"/>
</g>
</svg>
